<svg height="512" viewBox="0 0 128 128" width="512" xmlns="http://www.w3.org/2000/svg"><g id="Circle_Grid" data-name="Circle Grid"><circle cx="64" cy="64" fill="#f6c863" r="64"/></g><g id="icon"><path d="m86.009 40.581h6.851v5.208h-6.851z" fill="#828a9e" transform="matrix(.685 -.728 .728 .685 -3.294 78.75)"/><rect fill="#62667c" height="10.63" rx=".698" transform="matrix(.685 -.728 .728 .685 .617 80.163)" width="4.941" x="90.555" y="34.052"/><path d="m35.961 39.759h5.208v6.851h-5.208z" fill="#828a9e" transform="matrix(.728 -.685 .685 .728 -19.114 38.147)"/><rect fill="#62667c" height="4.941" rx=".698" transform="matrix(.728 -.685 .685 .728 -17.473 34.65)" width="10.63" x="29.66" y="36.897"/><path d="m59.065 29.471h9.826v9.481h-9.826z" fill="#828a9e" transform="matrix(.004 -1 1 .004 29.539 98.068)"/><rect fill="#62667c" height="7.839" rx=".832" width="16.876" x="55.567" y="22.5"/><circle cx="64" cy="69.36" fill="#62667c" r="36.14"/><circle cx="64" cy="69.36" fill="#eeefee" r="31.477"/><g fill="#62667c"><path d="m63.013 40.794h1.974v4.873h-1.974z"/><path d="m63.013 93.053h1.974v4.873h-1.974z"/><path d="m87.693 68.405h4.873v1.91h-4.873z"/><path d="m35.434 68.405h4.873v1.91h-4.873z"/><path d="m67.664 67.7a3.648 3.648 0 1 1 -5.159 5.159c-1.424-1.424-10.942-16.113-10.942-16.113s14.677 9.53 16.101 10.954z"/></g><path d="m66.483 68.744a2.066 2.066 0 1 1 -2.908.013 2.063 2.063 0 0 1 2.908-.013z" fill="#9a9eaf"/></g></svg>