<?xml version="1.0" encoding="UTF-8" standalone="no" ?>
<!DOCTYPE svg PUBLIC "-//W3C//DTD SVG 1.1//EN" "http://www.w3.org/Graphics/SVG/1.1/DTD/svg11.dtd">
<svg xmlns="http://www.w3.org/2000/svg" xmlns:xlink="http://www.w3.org/1999/xlink" version="1.1" width="1000" height="1000" viewBox="0 0 500 500" xml:space="preserve">
<desc>Created with Fabric.js 4.6.0</desc>
<defs>
</defs>
<g transform="matrix(1.53 0 0 1.01 257.4 247.68)" id="IpdkRb5m9a6IUAA8jB-Ei"  >
<path style="stroke: rgb(0,0,0); stroke-width: 1; stroke-dasharray: none; stroke-linecap: butt; stroke-dashoffset: 0; stroke-linejoin: miter; stroke-miterlimit: 4; fill: rgb(211,199,199); fill-rule: nonzero; opacity: 0.68;" vector-effect="non-scaling-stroke"  transform=" translate(0, 0)" d="M -167.8995 249.30779 L -168.02764 -249.30779 L 168.02764 -249.30779 L 53.706029999999984 249.30779 z" stroke-linecap="round" />
</g>
<g transform="matrix(0.74 0.08 -0.08 0.74 398.58 392.17)" id="CLryURzIuSmMYI9r1E3Li"  >
<path style="stroke: rgb(0,0,0); stroke-width: 0; stroke-dasharray: none; stroke-linecap: butt; stroke-dashoffset: 0; stroke-linejoin: miter; stroke-miterlimit: 4; fill: rgb(87,61,128); fill-rule: nonzero; opacity: 1;" vector-effect="non-scaling-stroke"  transform=" translate(0, 0)" d="M 8.79397 -160.36181 L 66.58291 -160.36181 L -6.281410000000008 159.98995000000002 L -66.58292 160.36181000000002 z" stroke-linecap="round" />
</g>
<g transform="matrix(0.98 0 0 0.99 697.36 596.41)" id="hk3Vm-A1yqy29l3FBlD56"  >
<path style="stroke: rgb(0,0,0); stroke-width: 1; stroke-dasharray: none; stroke-linecap: butt; stroke-dashoffset: 0; stroke-linejoin: miter; stroke-miterlimit: 4; fill: rgb(255,255,255); fill-opacity: 0; fill-rule: nonzero; opacity: 1;" vector-effect="non-scaling-stroke"  transform=" translate(0, 0)" d="M 18.59059 -133.79397 L 40.82915 -133.79397 L -16.959789999999998 133.79397 L -40.829139999999995 133.79397 z" stroke-linecap="round" />
</g>
<g transform="matrix(0.68 0.2 -0.19 0.69 401.18 274.5)" id="F9pHLRa8dx-L27kHHw4YH"  >
<path style="stroke: rgb(0,0,0); stroke-width: 0; stroke-dasharray: none; stroke-linecap: butt; stroke-dashoffset: 0; stroke-linejoin: miter; stroke-miterlimit: 4; fill: rgb(189,206,30); fill-rule: nonzero; opacity: 1;" vector-effect="non-scaling-stroke"  transform=" translate(-11.5, -121.7)" d="M 18.4 0 L 23 0 L 5.877780000000001 243.40398 L 1.7763568394002505e-15 243.40398 z" stroke-linecap="round" />
</g>
<g transform="matrix(0.69 0.2 -0.2 0.69 411.81 274.02)" id="IY_AqYM-bEgOZgIUzQRsf"  >
<path style="stroke: rgb(0,0,0); stroke-width: 0; stroke-dasharray: none; stroke-linecap: butt; stroke-dashoffset: 0; stroke-linejoin: miter; stroke-miterlimit: 4; fill: rgb(189,206,30); fill-rule: nonzero; opacity: 1;" vector-effect="non-scaling-stroke"  transform=" translate(0, 0)" d="M 6.9 -121.70199 L 11.5 -121.70199 L -5.622219999999999 121.70199 L -11.499999999999998 121.70199 z" stroke-linecap="round" />
</g>
<g transform="matrix(0.96 0.28 -0.28 0.96 376.74 274.02)" id="K2MVc3Qw4NTkdNJmcGCsO"  >
<path style="stroke: rgb(0,0,0); stroke-width: 0; stroke-dasharray: none; stroke-linecap: butt; stroke-dashoffset: 0; stroke-linejoin: miter; stroke-miterlimit: 4; fill: rgb(189,206,30); fill-rule: nonzero; opacity: 1;" vector-effect="non-scaling-stroke"  transform=" translate(-8.16, -86.86)" d="M 12.95473 0 L 16.3252 0 L 4.3067199999999985 173.72584 L -1.7763568394002505e-15 173.72584 z" stroke-linecap="round" />
</g>
<g transform="matrix(0.68 0.2 -0.19 0.69 389.77 274.35)" id="0DRoQTq4x7fwFSGU68w60"  >
<path style="stroke: rgb(0,0,0); stroke-width: 0; stroke-dasharray: none; stroke-linecap: butt; stroke-dashoffset: 0; stroke-linejoin: miter; stroke-miterlimit: 4; fill: rgb(189,206,30); fill-rule: nonzero; opacity: 1;" vector-effect="non-scaling-stroke"  transform=" translate(-11.5, -121.7)" d="M 18.4 0 L 23 0 L 5.877780000000001 243.40398 L 1.7763568394002505e-15 243.40398 z" stroke-linecap="round" />
</g>
</svg>