<svg id="_x33_0" enable-background="new 0 0 64 64" height="512" viewBox="0 0 64 64" width="512" xmlns="http://www.w3.org/2000/svg"><g><g><g><path d="m19 29 .039.348.461-.181z" fill="#f0bc5e"/></g><g><path d="m37 10c0-4.196-3.729-7.571-8.022-6.921-1.312-1.328-3.094-2.079-4.978-2.079-1.437 0-2.829.444-4 1.263-1.171-.819-2.563-1.263-4-1.263-3.542 0-6.478 2.645-6.938 6.063-3.417.459-6.062 3.395-6.062 6.937 0 2.165 1.002 4.187 2.675 5.502-.44.755-.675 1.613-.675 2.498 0 2.444 1.763 4.484 4.084 4.916.432 2.321 2.472 4.084 4.916 4.084.692 0 1.372-.15 2-.425v-8.575l-2.633-1.317c-.838-.418-1.367-1.274-1.367-2.211 0-1.365 1.107-2.472 2.472-2.472h1.528v-2c0-2.209 1.791-4 4-4h8c1.105 0 2 .895 2 2v2.171.013c1.163.413 2 1.512 2 2.816s-.837 2.403-2 2.816v.013 3.288c0 .717-.11 1.408-.313 2.058l.449-.176c3.797-.073 6.864-3.185 6.864-6.999 0-1.437-.443-2.83-1.263-4 .82-1.17 1.263-2.563 1.263-4z" fill="#f0bc5e"/></g></g><g><path d="m61.929 54.994c-.945-.017-1.393-.342-1.996-.793-.713-.535-1.601-1.2-3.268-1.2s-2.554.666-3.267 1.2c-.62.464-1.067.8-2.067.8-.999 0-1.446-.335-2.065-.8-.6-.45-1.34-.997-2.564-1.152-.166.319-.314.648-.421.992l3.27 4.36c.292.389.45.863.45 1.35 0 .618-.25 1.177-.653 1.583v.001c.834.425 1.78.665 2.781.665h3.742c3.385 0 6.129-2.744 6.129-6.129 0-.296-.029-.588-.071-.877z" fill="#f0bc5e"/></g><g><path d="m49.55 58.4-1.691-2.255c-.702-.524-1.582-1.145-3.194-1.145-1.667 0-2.554.666-3.267 1.2-.62.464-1.067.8-2.067.8s-1.447-.335-2.065-.8c-.088-.066-.177-.132-.266-.197v-1.003l-1 1.333v3.667c0 .702-.363 1.317-.91 1.674l-.001.004c.339.204.736.322 1.161.322h11.5c1.243 0 2.25-1.007 2.25-2.25 0-.487-.158-.961-.45-1.35z" fill="#f0bc5e"/></g><g><path d="m23 27c1.615 0 3.067-.897 3.789-2.342l.105-.211-1.789-.895-.105.212c-.381.762-1.147 1.236-2 1.236s-1.619-.474-2-1.236l-.105-.211-1.789.895.105.21c.722 1.445 2.174 2.342 3.789 2.342z"/><path d="m60.436 50.394-3.436-2.862v-8.532c0-1.103-.897-2-2-2h-2c-1.103 0-2 .897-2 2v8.532l-3.436 2.862c-.589.491-1.08 1.076-1.479 1.719l-1.085-1.446v-9.921c5.087-4.198 8-10.348 8-16.961v-1.968c1.161-.414 2-1.514 2-2.816v-4c0-1.654-1.346-3-3-3-.352 0-.686.072-1 .184v-4.185c0-1.654-1.346-3-3-3s-3 1.346-3 3v4.184c-.314-.112-.648-.184-1-.184-1.654 0-3 1.346-3 3s1.346 3 3 3c.352 0 .686-.072 1-.184v.184c0 8.271-6.729 15-15 15h-5.172l-.401-2.118c3.724-.627 6.573-3.865 6.573-7.765v-2.674c1.19-.694 2-1.97 2-3.444s-.81-2.75-2-3.444v-1.555c0-1.654-1.346-3-3-3h-4c-.552 0-1-.449-1-1s.448-1 1-1h1v-2h-1c-1.654 0-3 1.346-3 3 0 .352.072.686.184 1h-1.184c-2.757 0-5 2.243-5 5v1h-.528c-1.914 0-3.472 1.558-3.472 3.472 0 1.324.735 2.514 1.919 3.105l2.081 1.041v10.496c-7.92 1.035-14 7.844-14 15.922v2.964c0 6.065 4.935 11 11 11h13c.577 0 1.123-.128 1.619-.349.424.221.894.349 1.381.349h6c.39 0 .76-.08 1.102-.216.366.138.753.216 1.148.216h11.5c.641 0 1.236-.193 1.74-.515.836.333 1.735.515 2.639.515h3.742c3.931 0 7.129-3.198 7.129-7.129 0-2.122-.935-4.119-2.564-5.477zm-5.436-11.394v4h-2v-4zm-12 8h-2v-2h2zm-8 2h-2v-3.18l2.314-.463c1.261-.252 2.494-.619 3.686-1.083v6.393l-2 2.667v-2.334c0-1.103-.897-2-2-2zm8-6h-2v-4h2zm9-29c.552 0 1 .449 1 1v4c0 .551-.448 1-1 1s-1-.449-1-1v-4c0-.551.448-1 1-1zm-4-7c.552 0 1 .449 1 1v4h-2v-4c0-.551.448-1 1-1zm-4 9c-.552 0-1-.449-1-1s.448-1 1-1 1 .449 1 1-.448 1-1 1zm3-2h2v7c0 .551-.448 1-1 1s-1-.449-1-1zm-.868 9.329c.514.413 1.158.671 1.868.671 1.383 0 2.539-.945 2.884-2.22.037.015.078.022.116.036v1.969c0 5.512-2.227 10.67-6.161 14.432-.305-.715-1.014-1.217-1.839-1.217h-2c-1.103 0-2 .897-2 2v3.106c-1.306.57-2.672 1.008-4.078 1.29l-1.922.384v-2.78h-2v8h-4v-14h3c7.512 0 13.89-4.902 16.132-11.671zm-21.132 31.671h-.131c-.206-.658-.65-1.206-1.225-1.564l-1.6-11.2 1.048-1.572 1.908.954zm-5.407-.422-.211.422h-1.229l1.714-12h.265l1.44 10.08c-.847.173-1.58.701-1.979 1.498zm-3.957-19.528 2.676 2.676-3.312 1.656v-4.255c.21-.032.423-.055.636-.077zm8.778-.05h.586v4.382l-3.312-1.656zm-3.949 6h-.93l-.825-1.237 1.29-.645 1.29.645zm-5.465.618 1.908-.954 1.048 1.572-1.824 12.764h-1.132zm14-22.618c-1.103 0-2-.897-2-2s.897-2 2-2 2 .897 2 2-.897 2-2 2zm-9-8h8c.552 0 1 .449 1 1v1c-1.474 0-2.75.81-3.444 2h-3.113c-.694-1.19-1.97-2-3.444-2-.713 0-1.373.203-1.953.531.229-1.431 1.46-2.531 2.954-2.531zm-1 4c1.103 0 2 .897 2 2s-.897 2-2 2-2-.897-2-2 .897-2 2-2zm-5.187 4.789c-.501-.251-.813-.756-.813-1.317 0-.811.66-1.472 1.472-1.472h.528c0 2.206 1.794 4 4 4s4-1.794 4-4h2c0 2.206 1.794 4 4 4v2.117c0 3.244-2.639 5.883-5.883 5.883-.634 0-1.26-.102-1.86-.302l-1.94-.647-.633 1.897 1.94.647c.578.192 1.176.292 1.779.347l.516 2.724-2.919 2.92-3-3v-12.204zm-10.813 32.211v-2.964c0-6.282 4.202-11.688 10-13.455v19.419h-1c-1.654 0-3-1.346-3-3v-7h-2v7c0 2.757 2.243 5 5 5h7v4h-7c-4.963 0-9-4.038-9-9zm18 9v-4.764l.382-.764c.145-.291.438-.472.764-.472.47 0 .854.383.854.854v1.146h2c1.103 0 2 .897 2 2s-.897 2-2 2zm7.444 0c.344-.591.556-1.268.556-2 0-1.474-.81-2.75-2-3.444v-4.556h8v2h-4v2h4v2h-2v2h2v1c0 .551-.448 1-1 1zm19.306 0h-10.934c.112-.314.184-.648.184-1v-3.333l4-5.333v-2.334h2v2.333l5.75 7.667c.161.216.25.482.25.75 0 .689-.561 1.25-1.25 1.25zm8.121 0h-3.742c-.455 0-.896-.064-1.325-.178.119-.337.196-.694.196-1.072 0-.698-.23-1.391-.65-1.95l-2.937-3.916c.317-.754.799-1.426 1.433-1.954l4.154-3.462v-3.468h2v3.468l4.154 3.462c1.173.978 1.846 2.414 1.846 3.941 0 2.828-2.301 5.129-5.129 5.129z"/></g></g></svg>