<svg height="400pt" viewBox="-6 0 400 400.77" width="400pt" xmlns="http://www.w3.org/2000/svg"><g fill="#122436"><path d="m330.671875 108.007812h-.003906v5h10v-5h.003906v-50.171874h-197.5v9.996093h187.5zm0 0"/><path d="m18.226562 118.207031h10v40.75h-10zm0 0"/><path d="m330.671875 341.769531v40.5h-302.445313v-40.5h-10v50.5h322.445313v-50.5zm0 0"/><path d="m18.226562 176.445312h10v10.410157h-10zm0 0"/><path d="m18.226562 222.253906h10v10.410156h-10zm0 0"/><path d="m18.226562 199.351562h10v10.410157h-10zm0 0"/><path d="m18.226562 290.960938h10v10.410156h-10zm0 0"/><path d="m18.226562 313.867188h10v10.410156h-10zm0 0"/><path d="m18.226562 268.058594h10v10.410156h-10zm0 0"/><path d="m18.226562 245.15625h10v10.410156h-10zm0 0"/><path d="m330.667969 273.113281h10v9.644531h-10zm0 0"/><path d="m330.667969 251.894531h10v9.644531h-10zm0 0"/><path d="m330.667969 315.550781h10v9.644531h-10zm0 0"/><path d="m330.667969 294.328125h10v9.648437h-10zm0 0"/><path d="m330.667969 188.234375h10v9.648437h-10zm0 0"/><path d="m330.667969 145.796875h10v9.648437h-10zm0 0"/><path d="m330.667969 124.578125h10v9.644531h-10zm0 0"/><path d="m330.667969 167.019531h10v9.644531h-10zm0 0"/><path d="m330.667969 230.675781h10v9.644531h-10zm0 0"/><path d="m330.667969 209.457031h10v9.644531h-10zm0 0"/><path d="m164.277344 178.710938v10c23.871094 0 45.441406 9.660156 61.089844 25.304687 15.640624 15.648437 25.300781 37.214844 25.304687 61.089844-.003906 23.871093-9.664063 45.4375-25.304687 61.085937-15.648438 15.644532-37.214844 25.300782-61.089844 25.304688-23.871094-.003906-45.4375-9.660156-61.089844-25.304688-15.640625-15.648437-25.300781-37.214844-25.300781-61.085937h-10c0 53.238281 43.152343 96.386719 96.390625 96.390625 53.238281-.003906 96.390625-43.152344 96.394531-96.390625-.003906-53.242188-43.15625-96.394531-96.394531-96.394531zm0 0"/></g><path d="m97.582031 202.058594 107.183594-127.96875 49.828125 41.738281-107.183594 127.964844zm0 0" fill="#4ea3da"/><path d="m97.582031 202.058594 107.183594-127.96875 14.066406 11.78125-107.1875 127.96875zm0 0" fill="#fff"/><path d="m204.15625 67.058594-113.613281 135.632812 3.832031 3.207032 53.660156 44.953124 113.613282-135.632812zm-57.367188 169.707031-42.160156-35.320313 100.769532-120.300781 42.164062 35.320313zm0 0" fill="#122436"/><path d="m213.964844 81.796875 37.535156-44.816406 31.429688 26.328125-37.535157 44.8125zm0 0" fill="#4ea3da"/><path d="m213.964844 81.796875 37.535156-44.816406 12.371094 10.363281-37.535156 44.8125zm0 0" fill="#fff"/><path d="m250.894531 29.949219-43.960937 52.480469 3.832031 3.210937 35.261719 29.539063 43.960937-52.480469zm-6.113281 71.144531-23.761719-19.910156 31.117188-37.148438 23.765625 19.90625zm0 0" fill="#122436"/><path d="m240.003906 27.355469 16.695313-19.933594 54.425781 45.589844-16.691406 19.933593zm0 0" fill="#4ea3da"/><path d="m240.003906 27.355469 16.695313-19.929688 15.386719 12.886719-16.695313 19.929688zm0 0" fill="#fff"/><path d="m256.085938.386719-23.113282 27.597656 3.832032 3.210937 58.261718 48.800782 23.113282-27.59375zm37.734374 65.523437-46.761718-39.171875 10.273437-12.261719 46.761719 39.167969zm0 0" fill="#122436"/><path d="m224.722656 189.640625c0 17.148437-13.902344 31.050781-31.054687 31.050781-17.148438 0-31.050781-13.902344-31.050781-31.050781s13.902343-31.050781 31.050781-31.050781c17.152343 0 31.054687 13.902344 31.054687 31.050781zm0 0" fill="#fff"/><path d="m206.753906 189.640625c0 7.226563-5.859375 13.082031-13.085937 13.082031-7.226563 0-13.082031-5.855468-13.082031-13.082031s5.855468-13.082031 13.082031-13.082031c7.226562 0 13.085937 5.855468 13.085937 13.082031zm0 0" fill="#4ea3da"/><path d="m193.671875 153.589844c-19.914063.003906-36.050781 16.136718-36.050781 36.050781.003906 19.910156 16.136718 36.046875 36.050781 36.050781 19.910156-.003906 36.046875-16.140625 36.050781-36.050781-.003906-19.914063-16.140625-36.046875-36.050781-36.050781zm18.417969 54.472656c-4.730469 4.722656-11.210938 7.628906-18.421875 7.628906-7.207031 0-13.6875-2.90625-18.417969-7.628906-4.722656-4.730469-7.628906-11.210938-7.632812-18.421875.003906-7.210937 2.910156-13.691406 7.632812-18.421875 4.730469-4.722656 11.210938-7.625 18.417969-7.628906 7.210937.003906 13.691406 2.90625 18.421875 7.628906 4.722656 4.730469 7.628906 11.214844 7.632812 18.421875-.003906 7.210937-2.910156 13.691406-7.632812 18.421875zm0 0" fill="#122436"/><path d="m47.765625 256.808594 16.753906-19.882813 54.292969 45.753907-16.753906 19.882812zm0 0" fill="#4ea3da"/><path d="m47.765625 256.808594 16.753906-19.882813 15.347657 12.929688-16.753907 19.882812zm0 0" fill="#fff"/><path d="m63.917969 229.886719-23.199219 27.527343 3.824219 3.222657 58.113281 48.976562 23.199219-27.527343zm37.535156 65.636719-46.644531-39.3125 10.308594-12.234376 46.644531 39.308594zm0 0" fill="#122436"/><path d="m45.167969 366.496094h238.503906v29.273437h-238.503906zm0 0" fill="#ffcc34"/><path d="m45.167969 366.496094h238.503906v14.636718h-238.503906zm0 0" fill="#fff"/><path d="m40.167969 361.496094v39.273437h248.5v-39.273437zm10 9.996094h228.503906v19.277343h-228.503906zm0 0" fill="#122436"/><path d="m140.386719 72.5c0 37.277344-30.222657 67.5-67.5 67.5-37.28125 0-67.5-30.222656-67.5-67.5s30.21875-67.5 67.5-67.5c37.277343 0 67.5 30.222656 67.5 67.5zm0 0" fill="#fff"/><path d="m72.886719 0c-40.042969.00390625-72.496094 32.457031-72.5 72.5.003906 40.042969 32.457031 72.496094 72.5 72.5 40.039062-.003906 72.496093-32.457031 72.5-72.5-.003907-40.042969-32.460938-72.49609375-72.5-72.5zm44.191406 116.695312c-11.324219 11.316407-26.917969 18.300782-44.191406 18.304688-17.277344-.003906-32.871094-6.988281-44.195313-18.304688-11.320312-11.328124-18.304687-26.921874-18.304687-44.195312s6.984375-32.867188 18.304687-44.195312c11.324219-11.316407 26.917969-18.300782 44.195313-18.304688 17.273437.003906 32.867187 6.988281 44.191406 18.304688 11.320313 11.328124 18.304687 26.921874 18.308594 44.195312-.003907 17.273438-6.988281 32.867188-18.308594 44.195312zm0 0" fill="#122436"/><path d="m61.949219 58.039062h7.332031c1.105469 0 2-.898437 2-2 0-1.105468-.894531-2-2-2h-7.332031v-4.167968h7.332031c1.105469 0 2-.894532 2-2 0-1.101563-.894531-2-2-2h-7.949219c-.378906-1-.921875-1.917969-1.597656-2.726563l4.5-4.5c.78125-.78125.78125-2.042969 0-2.828125-.78125-.78125-2.046875-.78125-2.828125 0l-4.851562 4.855469c-.664063-.316406-1.371094-.558594-2.105469-.71875v-8.074219c0-1.101562-.894531-2-2-2s-2 .898438-2 2v8.074219c-.734375.160156-1.441407.402344-2.105469.71875l-4.851562-4.851563c-.78125-.78125-2.046876-.78125-2.828126 0s-.78125 2.046876 0 2.828126l4.5 4.5c-.675781.804687-1.21875 1.726562-1.597656 2.726562h-7.953125c-1.101562 0-2 .894531-2 2 0 1.101562.898438 2 2 2h7.335938v4.164062h-7.335938c-1.101562 0-2 .898438-2 2 0 1.105469.898438 2 2 2h7.335938v4.898438h-7.335938c-1.101562 0-2 .894531-2 2 0 1.101562.898438 2 2 2h8.265625c.390625.820312.898438 1.574219 1.5 2.242188l-4.714844 4.714843c-.78125.78125-.78125 2.046875 0 2.828125.390626.390625.902344.585938 1.414063.585938s1.023437-.195313 1.414063-.585938l5.171874-5.171875c.570313.246094 1.164063.4375 1.785157.574219v8.535156c0 1.105469.894531 2 2 2s2-.894531 2-2v-8.535156c.621093-.132812 1.21875-.328125 1.785156-.574219l5.171875 5.171875c.390625.390625.902344.585938 1.414062.585938.511719 0 1.023438-.195313 1.414063-.585938.78125-.78125.78125-2.046875 0-2.828125l-4.714844-4.714843c.597657-.667969 1.109375-1.421876 1.5-2.242188h8.261719c1.105469 0 2-.894531 2-2 0-1.101562-.894531-2-2-2h-7.335938v-4.898438zm0 0" fill="#4ea3da"/><path d="m105.789062 90.738281h7.335938c1.105469 0 2-.894531 2-2s-.894531-2-2-2h-7.335938v-4.167969h7.335938c1.105469 0 2-.894531 2-2 0-1.101562-.894531-2-2-2h-7.949219c-.378906-1-.925781-1.917968-1.597656-2.722656l4.496094-4.5c.78125-.785156.78125-2.046875 0-2.828125-.78125-.785156-2.046875-.785156-2.828125 0l-4.851563 4.851563c-.660156-.316406-1.367187-.558594-2.105469-.71875v-8.074219c0-1.101563-.894531-2-2-2-1.101562 0-2 .898437-2 2v8.074219c-.734374.160156-1.441406.402344-2.101562.71875l-4.855469-4.851563c-.78125-.785156-2.046875-.785156-2.828125 0-.78125.78125-.78125 2.042969 0 2.828125l4.5 4.5c-.671875.804688-1.21875 1.722656-1.597656 2.722656h-7.949219c-1.105469 0-2 .898438-2 2 0 1.105469.894531 2 2 2h7.332031v4.167969h-7.332031c-1.105469 0-2 .894531-2 2s.894531 2 2 2h7.332031v4.898438h-7.332031c-1.105469 0-2 .894531-2 2 0 1.101562.894531 2 2 2h8.261719c.390625.820312.898438 1.574219 1.5 2.242187l-4.714844 4.714844c-.78125.78125-.78125 2.042969 0 2.828125.390625.386719.902344.585937 1.414063.585937s1.023437-.199218 1.414062-.585937l5.171875-5.171875c.570313.246094 1.167969.441406 1.785156.574219v8.535156c0 1.105469.898438 2 2 2 1.105469 0 2-.894531 2-2v-8.535156c.621094-.132813 1.21875-.328125 1.789063-.574219l5.167969 5.171875c.390625.386719.902344.585937 1.414062.585937.511719 0 1.023438-.199218 1.414063-.585937.78125-.785156.78125-2.046875 0-2.828125l-4.714844-4.714844c.601563-.671875 1.109375-1.425781 1.5-2.242187h8.261719c1.105468 0 2-.898438 2-2 0-1.105469-.894532-2-2-2h-7.332032zm0 0" fill="#4ea3da"/><path d="m107.34375 42.417969c0 4.910156-3.980469 8.886719-8.886719 8.886719-4.910156 0-8.886719-3.980469-8.886719-8.886719 0-4.910157 3.980469-8.886719 8.886719-8.886719s8.886719 3.980469 8.886719 8.886719zm0 0" fill="#4ea3da"/><path d="m63.503906 102.820312c0 4.910157-3.980468 8.886719-8.890625 8.886719-4.90625 0-8.886719-3.980469-8.886719-8.886719 0-4.910156 3.980469-8.886718 8.886719-8.886718 4.910157 0 8.890625 3.976562 8.890625 8.886718zm0 0" fill="#4ea3da"/><path d="m335.816406 189.667969c-1.953125-.007813-3.863281.152343-5.722656.46875l-8.347656-9.867188c-1.273438-1.503906-3.4375-1.886719-5.148438-.910156l-8.574218 4.898437c-1.710938.976563-2.480469 3.035157-1.832032 4.894532l4.265625 12.210937c-2.460937 2.90625-4.429687 6.242188-5.773437 9.878907l-12.714844 2.296874c-1.9375.347657-3.351562 2.03125-3.359375 4.003907l-.042969 9.875c-.011718 1.96875 1.386719 3.667969 3.324219 4.035156l12.695313 2.410156c1.3125 3.648438 3.25 7 5.683593 9.925781l-4.375 12.171876c-.667969 1.851562.085938 3.917968 1.785157 4.914062l8.535156 4.976562c1.699218.992188 3.867187.628907 5.152344-.867187l8.441406-9.789063c1.855468.332032 3.765625.511719 5.714844.519532 1.953124.007812 3.867187-.15625 5.722656-.472656l8.347656 9.871093c1.273438 1.503907 3.4375 1.882813 5.148438.910157l8.578124-4.902344c1.707032-.976563 2.480469-3.035156 1.828126-4.894532l-4.261719-12.210937c2.457031-2.902344 4.425781-6.238281 5.769531-9.875l12.714844-2.296875c1.941406-.351562 3.355468-2.035156 3.363281-4.003906l.042969-9.875c.007812-1.972656-1.386719-3.667969-3.324219-4.035156l-12.695313-2.410157c-1.3125-3.648437-3.25-7-5.683593-9.925781l4.375-12.171875c.664062-1.855469-.085938-3.917969-1.789063-4.910156l-8.53125-4.976563c-1.703125-.992187-3.871094-.632812-5.15625.859375l-8.4375 9.792969c-1.855468-.332031-3.765625-.511719-5.71875-.519531zm16.367188 33.097656c-.042969 9.121094-7.464844 16.476563-16.585938 16.4375-9.121094-.042969-16.480468-7.464844-16.441406-16.585937.042969-9.121094 7.464844-16.480469 16.585938-16.4375 9.121093.042968 16.480468 7.464843 16.441406 16.585937zm0 0" fill="#ffcc34"/><path d="m352.183594 222.765625c-.042969 9.121094-7.464844 16.476563-16.585938 16.4375-9.121094-.042969-16.480468-7.464844-16.441406-16.585937.042969-9.121094 7.464844-16.480469 16.585938-16.4375 9.121093.042968 16.480468 7.464843 16.441406 16.585937zm0 0" fill="#fff"/><path d="m357.183594 222.730469v-.039063c0-5.90625-2.402344-11.300781-6.265625-15.175781-3.832031-3.859375-9.171875-6.277344-15.03125-6.332031h-.007813c-.035156 0-.074218-.003906-.109375-.003906h-.097656c-5.90625 0-11.300781 2.398437-15.175781 6.265624-3.882813 3.859376-6.3125 9.246094-6.335938 15.152344v.097656c-.003906 5.902344 2.398438 11.296876 6.265625 15.175782 3.855469 3.882812 9.242188 6.3125 15.152344 6.335937h.097656c5.902344 0 11.296875-2.402343 15.171875-6.265625 3.886719-3.855468 6.3125-9.242187 6.335938-15.148437zm-13.394532 8.121093c-2.097656 2.082032-4.9375 3.351563-8.117187 3.351563h-.054687c-3.1875-.015625-6.023438-1.300781-8.109376-3.390625-2.082031-2.097656-3.351562-4.9375-3.351562-8.113281v-.058594c.015625-3.1875 1.296875-6.019531 3.390625-8.109375 2.09375-2.078125 4.933594-3.347656 8.109375-3.351562h.0625c3.1875.015624 6.019531 1.300781 8.105469 3.390624 2.082031 2.101563 3.351562 4.941407 3.351562 8.121094v.054688c-.011719 3.183594-1.292969 6.019531-3.386719 8.105468zm0 0" fill="#122436"/><path d="m387.773438 217.867188c-.035157-4.332032-3.125-8.039063-7.390626-8.847657l-10.015624-1.902343c-1.015626-2.257813-2.246094-4.402344-3.664063-6.398438l3.453125-9.601562c.359375-1.003907.535156-2.046876.535156-3.074219 0-3.15625-1.65625-6.179688-4.507812-7.847657l-8.53125-4.980468c-1.421875-.828125-3.015625-1.238282-4.578125-1.238282-2.5625-.003906-5.109375 1.09375-6.886719 3.15625l-6.660156 7.730469c-1.210938-.121093-2.441406-.1875-3.683594-.191406h-.175781c-1.183594 0-2.355469.050781-3.511719.160156l-6.589844-7.789062c-1.777344-2.097657-4.347656-3.222657-6.941406-3.21875-1.535156 0-3.101562.394531-4.511719 1.203125l.007813-.003906-8.574219 4.898437c-2.894531 1.65625-4.582031 4.703125-4.582031 7.890625 0 .996094.167968 2.015625.511718 3v-.003906l3.363282 9.632812c-1.433594 1.988282-2.683594 4.117188-3.722656 6.367188l-10.035157 1.8125c-4.3125.78125-7.453125 4.519531-7.472656 8.90625l-.042969 9.871094v.042968c0 4.367188 3.101563 8.109375 7.386719 8.925782l10.023437 1.902343c1.015626 2.261719 2.246094 4.402344 3.664063 6.402344l-3.453125 9.605469c-.359375.996094-.535156 2.039062-.535156 3.070312-.003906 3.160156 1.65625 6.183594 4.507812 7.851563l8.535156 4.976562c1.421876.832031 3.015626 1.238281 4.574219 1.238281 2.566407.003907 5.113281-1.097656 6.886719-3.152343l.003906-.003907 6.660156-7.730468c1.210938.121094 2.441407.1875 3.683594.195312h.171875c1.183594 0 2.355469-.058594 3.515625-.164062l6.589844 7.792968c1.777344 2.097657 4.347656 3.21875 6.941406 3.214844 1.535156.003906 3.097656-.390625 4.5-1.191406l.003906-.003906 8.578126-4.898438c2.890624-1.660156 4.582031-4.703125 4.578124-7.890625 0-1.003906-.167968-2.015625-.511718-2.992187l-3.363282-9.636719c1.433594-1.988281 2.683594-4.117187 3.722657-6.367187l10.03125-1.8125c4.3125-.785157 7.453125-4.519532 7.472656-8.90625l.042969-9.875v-.019532zm-70.191407 43.855468-.003906.003906zm35.339844-.417968-9.699219-11.464844-2.8125.476562c-1.542968.261719-3.125.402344-4.738281.402344h-.125c-1.660156-.007812-3.285156-.160156-4.863281-.441406l-2.804688-.503906-9.804687 11.375-7.222657-4.210938 5.085938-14.148438-1.828125-2.195312c-2.066406-2.488281-3.707031-5.332031-4.820313-8.425781l-.964843-2.6875-14.757813-2.800781.039063-8.359376 14.78125-2.667968.988281-2.679688c1.136719-3.078125 2.808594-5.910156 4.898438-8.375l1.84375-2.183594-4.953126-14.191406 7.253907-4.148437 9.699219 11.46875 2.8125-.480469c1.539062-.261719 3.121093-.398438 4.734374-.398438h.125l.027344-5-.023437 5c1.660156.007813 3.28125.160157 4.859375.441407l2.808594.503906 9.800781-11.378906 7.222656 4.214843-5.085937 14.144532 1.828124 2.195312c2.066407 2.488282 3.710938 5.332032 4.824219 8.425782l.964844 2.6875 14.753906 2.800781-.039062 8.359375-14.78125 2.667968-.988281 2.679688c-1.136719 3.078125-2.808594 5.910156-4.898438 8.378906l-1.84375 2.179688 4.953125 14.1875zm0 0" fill="#122436"/></svg>