<?xml version="1.0" encoding="UTF-8" standalone="no" ?>
<!DOCTYPE svg PUBLIC "-//W3C//DTD SVG 1.1//EN" "http://www.w3.org/Graphics/SVG/1.1/DTD/svg11.dtd">
<svg xmlns="http://www.w3.org/2000/svg" xmlns:xlink="http://www.w3.org/1999/xlink" version="1.1" width="500" height="500" viewBox="0 0 500 500" xml:space="preserve">
<desc>Created with Fabric.js 4.6.0</desc>
<defs>
</defs>
<g transform="matrix(1.39 0 0 0.98 234.38 250)" id="uHcrN5enWolt2u8sg4ktl"  >
<path style="stroke: rgb(0,0,0); stroke-width: 1; stroke-dasharray: none; stroke-linecap: butt; stroke-dashoffset: 0; stroke-linejoin: miter; stroke-miterlimit: 4; fill: rgb(211,199,199); fill-rule: nonzero; opacity: 0.68;" vector-effect="non-scaling-stroke"  transform=" translate(0, 0)" d="M -167.8995 249.30779 L -168.02764 -249.30779 L 168.02764 -249.30779 L 53.706029999999984 249.30779 z" stroke-linecap="round" />
</g>
<g transform="matrix(0.98 0.09 -0.09 0.98 385.91 351.93)" id="F3PLvVPVtDEkxI2cRMN74"  >
<path style="stroke: rgb(0,0,0); stroke-width: 0; stroke-dasharray: none; stroke-linecap: butt; stroke-dashoffset: 0; stroke-linejoin: miter; stroke-miterlimit: 4; fill: rgb(87,61,128); fill-rule: nonzero; opacity: 1;" vector-effect="non-scaling-stroke"  transform=" translate(0, 0)" d="M 8.79397 -160.36181 L 66.58291 -160.36181 L -6.281410000000008 159.98995000000002 L -66.58292 160.36181000000002 z" stroke-linecap="round" />
</g>
<g transform="matrix(0.98 0 0 0.98 697.05 597.24)" id="IROM0wylGRk2ztqFUrht3"  >
<path style="stroke: rgb(0,0,0); stroke-width: 1; stroke-dasharray: none; stroke-linecap: butt; stroke-dashoffset: 0; stroke-linejoin: miter; stroke-miterlimit: 4; fill: rgb(255,255,255); fill-opacity: 0; fill-rule: nonzero; opacity: 1;" vector-effect="non-scaling-stroke"  transform=" translate(0, 0)" d="M 18.59059 -133.79397 L 40.82915 -133.79397 L -16.959789999999998 133.79397 L -40.829139999999995 133.79397 z" stroke-linecap="round" />
</g>
<g transform="matrix(0.97 0.24 -0.24 0.97 345.31 243.73)" id="TfaWflWEYSsbmsPBe_Mvj"  >
<path style="stroke: rgb(0,0,0); stroke-width: 0; stroke-dasharray: none; stroke-linecap: butt; stroke-dashoffset: 0; stroke-linejoin: miter; stroke-miterlimit: 4; fill: rgb(189,206,30); fill-rule: nonzero; opacity: 1;" vector-effect="non-scaling-stroke"  transform=" translate(-11.5, -121.7)" d="M 18.4 0 L 23 0 L 5.877780000000001 243.40398 L 1.7763568394002505e-15 243.40398 z" stroke-linecap="round" />
</g>
<g transform="matrix(0.97 0.24 -0.24 0.97 358.86 243.73)" id="oTGXCciiWNXWjtaQno7hu"  >
<path style="stroke: rgb(0,0,0); stroke-width: 0; stroke-dasharray: none; stroke-linecap: butt; stroke-dashoffset: 0; stroke-linejoin: miter; stroke-miterlimit: 4; fill: rgb(189,206,30); fill-rule: nonzero; opacity: 1;" vector-effect="non-scaling-stroke"  transform=" translate(-11.5, -121.7)" d="M 18.4 0 L 23 0 L 5.877780000000001 243.40398 L 1.7763568394002505e-15 243.40398 z" stroke-linecap="round" />
</g>
<g transform="matrix(0.97 0.24 -0.24 0.97 373.43 243.73)" id="rD0rQAH8zAiwOJn6uKbkO"  >
<path style="stroke: rgb(0,0,0); stroke-width: 0; stroke-dasharray: none; stroke-linecap: butt; stroke-dashoffset: 0; stroke-linejoin: miter; stroke-miterlimit: 4; fill: rgb(189,206,30); fill-rule: nonzero; opacity: 1;" vector-effect="non-scaling-stroke"  transform=" translate(-11.5, -121.7)" d="M 18.4 0 L 23 0 L 5.877780000000001 243.40398 L 1.7763568394002505e-15 243.40398 z" stroke-linecap="round" />
</g>
<g transform="matrix(0.97 0.24 -0.24 0.97 385.91 243.73)" id="I-I6s14eeNPTKkxp2w7hx"  >
<path style="stroke: rgb(0,0,0); stroke-width: 0; stroke-dasharray: none; stroke-linecap: butt; stroke-dashoffset: 0; stroke-linejoin: miter; stroke-miterlimit: 4; fill: rgb(189,206,30); fill-rule: nonzero; opacity: 1;" vector-effect="non-scaling-stroke"  transform=" translate(-11.5, -121.7)" d="M 18.4 0 L 23 0 L 5.877780000000001 243.40398 L 1.7763568394002505e-15 243.40398 z" stroke-linecap="round" />
</g>
</svg>